<svg width="64" height="40" viewBox="0 0 64 40" fill="none" xmlns="http://www.w3.org/2000/svg">
<path d="M0.595 7.05C0.595 5.88267 0.855667 4.84 1.377 3.922C1.90967 2.99267 2.62933 2.273 3.536 1.763C4.454 1.24167 5.47967 0.981 6.613 0.981C7.939 0.981 9.10067 1.321 10.098 2.001C11.0953 2.681 11.7923 3.62167 12.189 4.823H9.452C9.18 4.25633 8.79467 3.83133 8.296 3.548C7.80867 3.26467 7.242 3.123 6.596 3.123C5.90467 3.123 5.287 3.28733 4.743 3.616C4.21033 3.93333 3.791 4.38667 3.485 4.976C3.19033 5.56533 3.043 6.25667 3.043 7.05C3.043 7.832 3.19033 8.52333 3.485 9.124C3.791 9.71333 4.21033 10.1723 4.743 10.501C5.287 10.8183 5.90467 10.977 6.596 10.977C7.242 10.977 7.80867 10.8353 8.296 10.552C8.79467 10.2573 9.18 9.82667 9.452 9.26H12.189C11.7923 10.4727 11.0953 11.419 10.098 12.099C9.112 12.7677 7.95033 13.102 6.613 13.102C5.47967 13.102 4.454 12.847 3.536 12.337C2.62933 11.8157 1.90967 11.096 1.377 10.178C0.855667 9.26 0.595 8.21733 0.595 7.05ZM13.6098 8.257C13.6098 7.305 13.7968 6.46067 14.1708 5.724C14.5562 4.98733 15.0718 4.42067 15.7178 4.024C16.3752 3.62733 17.1062 3.429 17.9108 3.429C18.6135 3.429 19.2255 3.57067 19.7468 3.854C20.2795 4.13733 20.7045 4.49433 21.0218 4.925V3.582H23.4188V13H21.0218V11.623C20.7158 12.065 20.2908 12.4333 19.7468 12.728C19.2142 13.0113 18.5965 13.153 17.8938 13.153C17.1005 13.153 16.3752 12.949 15.7178 12.541C15.0718 12.133 14.5562 11.5607 14.1708 10.824C13.7968 10.076 13.6098 9.22033 13.6098 8.257ZM21.0218 8.291C21.0218 7.713 20.9085 7.22 20.6818 6.812C20.4552 6.39267 20.1492 6.07533 19.7638 5.86C19.3785 5.63333 18.9648 5.52 18.5228 5.52C18.0808 5.52 17.6728 5.62767 17.2988 5.843C16.9248 6.05833 16.6188 6.37567 16.3808 6.795C16.1542 7.203 16.0408 7.69033 16.0408 8.257C16.0408 8.82367 16.1542 9.32233 16.3808 9.753C16.6188 10.1723 16.9248 10.4953 17.2988 10.722C17.6842 10.9487 18.0922 11.062 18.5228 11.062C18.9648 11.062 19.3785 10.9543 19.7638 10.739C20.1492 10.5123 20.4552 10.195 20.6818 9.787C20.9085 9.36767 21.0218 8.869 21.0218 8.291ZM28.1233 5.044C28.4293 4.54533 28.826 4.15433 29.3133 3.871C29.812 3.58767 30.3786 3.446 31.0133 3.446V5.945H30.3843C29.6363 5.945 29.0696 6.12067 28.6843 6.472C28.3103 6.82333 28.1233 7.43533 28.1233 8.308V13H25.7433V3.582H28.1233V5.044ZM34.9964 4.959C35.3024 4.50567 35.7217 4.13733 36.2544 3.854C36.7984 3.57067 37.416 3.429 38.1074 3.429C38.912 3.429 39.6374 3.62733 40.2834 4.024C40.9407 4.42067 41.4564 4.98733 41.8304 5.724C42.2157 6.44933 42.4084 7.29367 42.4084 8.257C42.4084 9.22033 42.2157 10.076 41.8304 10.824C41.4564 11.5607 40.9407 12.133 40.2834 12.541C39.6374 12.949 38.912 13.153 38.1074 13.153C37.4047 13.153 36.787 13.017 36.2544 12.745C35.733 12.4617 35.3137 12.099 34.9964 11.657V13H32.6164V0.42H34.9964V4.959ZM39.9774 8.257C39.9774 7.69033 39.8584 7.203 39.6204 6.795C39.3937 6.37567 39.0877 6.05833 38.7024 5.843C38.3284 5.62767 37.9204 5.52 37.4784 5.52C37.0477 5.52 36.6397 5.63333 36.2544 5.86C35.8804 6.07533 35.5744 6.39267 35.3364 6.812C35.1097 7.23133 34.9964 7.72433 34.9964 8.291C34.9964 8.85767 35.1097 9.35067 35.3364 9.77C35.5744 10.1893 35.8804 10.5123 36.2544 10.739C36.6397 10.9543 37.0477 11.062 37.4784 11.062C37.9204 11.062 38.3284 10.9487 38.7024 10.722C39.0877 10.4953 39.3937 10.1723 39.6204 9.753C39.8584 9.33367 39.9774 8.835 39.9774 8.257ZM48.3198 13.153C47.4132 13.153 46.5972 12.9547 45.8718 12.558C45.1465 12.15 44.5742 11.5777 44.1548 10.841C43.7468 10.1043 43.5428 9.25433 43.5428 8.291C43.5428 7.32767 43.7525 6.47767 44.1718 5.741C44.6025 5.00433 45.1862 4.43767 45.9228 4.041C46.6595 3.633 47.4812 3.429 48.3878 3.429C49.2945 3.429 50.1162 3.633 50.8528 4.041C51.5895 4.43767 52.1675 5.00433 52.5868 5.741C53.0175 6.47767 53.2328 7.32767 53.2328 8.291C53.2328 9.25433 53.0118 10.1043 52.5698 10.841C52.1392 11.5777 51.5498 12.15 50.8018 12.558C50.0652 12.9547 49.2378 13.153 48.3198 13.153ZM48.3198 11.079C48.7505 11.079 49.1528 10.977 49.5268 10.773C49.9122 10.5577 50.2182 10.2403 50.4448 9.821C50.6715 9.40167 50.7848 8.89167 50.7848 8.291C50.7848 7.39567 50.5468 6.71 50.0708 6.234C49.6062 5.74667 49.0338 5.503 48.3538 5.503C47.6738 5.503 47.1015 5.74667 46.6368 6.234C46.1835 6.71 45.9568 7.39567 45.9568 8.291C45.9568 9.18633 46.1778 9.87767 46.6198 10.365C47.0732 10.841 47.6398 11.079 48.3198 11.079ZM60.1977 3.446C61.3197 3.446 62.2263 3.803 62.9177 4.517C63.609 5.21967 63.9547 6.20567 63.9547 7.475V13H61.5747V7.798C61.5747 7.05 61.3877 6.47767 61.0137 6.081C60.6397 5.673 60.1297 5.469 59.4837 5.469C58.8263 5.469 58.305 5.673 57.9197 6.081C57.5457 6.47767 57.3587 7.05 57.3587 7.798V13H54.9787V3.582H57.3587V4.755C57.676 4.347 58.0783 4.02967 58.5657 3.803C59.0643 3.565 59.6083 3.446 60.1977 3.446ZM9.435 30.704C9.163 30.2053 8.789 29.8257 8.313 29.565C7.837 29.3043 7.28167 29.174 6.647 29.174C5.94433 29.174 5.321 29.3327 4.777 29.65C4.233 29.9673 3.808 30.4207 3.502 31.01C3.196 31.5993 3.043 32.2793 3.043 33.05C3.043 33.8433 3.196 34.5347 3.502 35.124C3.81933 35.7133 4.25567 36.1667 4.811 36.484C5.36633 36.8013 6.01233 36.96 6.749 36.96C7.65567 36.96 8.398 36.722 8.976 36.246C9.554 35.7587 9.93367 35.0843 10.115 34.223H6.035V32.404H12.461V34.478C12.3023 35.3053 11.9623 36.0703 11.441 36.773C10.9197 37.4757 10.2453 38.0423 9.418 38.473C8.602 38.8923 7.684 39.102 6.664 39.102C5.51933 39.102 4.48233 38.847 3.553 38.337C2.635 37.8157 1.90967 37.096 1.377 36.178C0.855667 35.26 0.595 34.2173 0.595 33.05C0.595 31.8827 0.855667 30.84 1.377 29.922C1.90967 28.9927 2.635 28.273 3.553 27.763C4.48233 27.2417 5.51367 26.981 6.647 26.981C7.98433 26.981 9.146 27.3097 10.132 27.967C11.118 28.613 11.798 29.5253 12.172 30.704H9.435ZM16.6018 31.044C16.9078 30.5453 17.3045 30.1543 17.7918 29.871C18.2905 29.5877 18.8572 29.446 19.4918 29.446V31.945H18.8628C18.1148 31.945 17.5482 32.1207 17.1628 32.472C16.7888 32.8233 16.6018 33.4353 16.6018 34.308V39H14.2218V29.582H16.6018V31.044ZM29.8499 34.087C29.8499 34.427 29.8272 34.733 29.7819 35.005H22.8969C22.9535 35.685 23.1915 36.2177 23.6109 36.603C24.0302 36.9883 24.5459 37.181 25.1579 37.181C26.0419 37.181 26.6709 36.8013 27.0449 36.042H29.6119C29.3399 36.9487 28.8185 37.6967 28.0479 38.286C27.2772 38.864 26.3309 39.153 25.2089 39.153C24.3022 39.153 23.4862 38.9547 22.7609 38.558C22.0469 38.15 21.4859 37.5777 21.0779 36.841C20.6812 36.1043 20.4829 35.2543 20.4829 34.291C20.4829 33.3163 20.6812 32.4607 21.0779 31.724C21.4745 30.9873 22.0299 30.4207 22.7439 30.024C23.4579 29.6273 24.2795 29.429 25.2089 29.429C26.1042 29.429 26.9032 29.6217 27.6059 30.007C28.3199 30.3923 28.8695 30.942 29.2549 31.656C29.6515 32.3587 29.8499 33.169 29.8499 34.087ZM27.3849 33.407C27.3735 32.795 27.1525 32.3077 26.7219 31.945C26.2912 31.571 25.7642 31.384 25.1409 31.384C24.5515 31.384 24.0529 31.5653 23.6449 31.928C23.2482 32.2793 23.0045 32.7723 22.9139 33.407H27.3849ZM40.3421 34.087C40.3421 34.427 40.3194 34.733 40.2741 35.005H33.3891C33.4457 35.685 33.6837 36.2177 34.1031 36.603C34.5224 36.9883 35.0381 37.181 35.6501 37.181C36.5341 37.181 37.1631 36.8013 37.5371 36.042H40.1041C39.8321 36.9487 39.3107 37.6967 38.5401 38.286C37.7694 38.864 36.8231 39.153 35.7011 39.153C34.7944 39.153 33.9784 38.9547 33.2531 38.558C32.5391 38.15 31.9781 37.5777 31.5701 36.841C31.1734 36.1043 30.9751 35.2543 30.9751 34.291C30.9751 33.3163 31.1734 32.4607 31.5701 31.724C31.9667 30.9873 32.5221 30.4207 33.2361 30.024C33.9501 29.6273 34.7717 29.429 35.7011 29.429C36.5964 29.429 37.3954 29.6217 38.0981 30.007C38.8121 30.3923 39.3617 30.942 39.7471 31.656C40.1437 32.3587 40.3421 33.169 40.3421 34.087ZM37.8771 33.407C37.8657 32.795 37.6447 32.3077 37.2141 31.945C36.7834 31.571 36.2564 31.384 35.6331 31.384C35.0437 31.384 34.5451 31.5653 34.1371 31.928C33.7404 32.2793 33.4967 32.7723 33.4061 33.407H37.8771ZM47.2983 29.446C48.4203 29.446 49.3269 29.803 50.0183 30.517C50.7096 31.2197 51.0553 32.2057 51.0553 33.475V39H48.6753V33.798C48.6753 33.05 48.4883 32.4777 48.1143 32.081C47.7403 31.673 47.2303 31.469 46.5843 31.469C45.9269 31.469 45.4056 31.673 45.0203 32.081C44.6463 32.4777 44.4593 33.05 44.4593 33.798V39H42.0793V29.582H44.4593V30.755C44.7766 30.347 45.1789 30.0297 45.6663 29.803C46.1649 29.565 46.7089 29.446 47.2983 29.446Z" fill="#57AE09"/>
</svg>
